<?xml version="1.0" encoding="utf-8"?>
<!-- Generator: Adobe Illustrator 26.1.0, SVG Export Plug-In . SVG Version: 6.00 Build 0)  -->
<svg version="1.1" id="Layer_1" xmlns="http://www.w3.org/2000/svg" xmlns:xlink="http://www.w3.org/1999/xlink" x="0px" y="0px"
	 viewBox="0 0 800 800" style="enable-background:new 0 0 800 800;" xml:space="preserve">
<style type="text/css">
	.st0{fill:#404040;}
</style>
<path class="st0" d="M539.7,66.7H260.3C139,66.7,66.7,139,66.7,260.3v279c0,121.7,72.3,194,193.7,194h279
	C660.7,733.3,733,661,733,539.7V260.3C733.3,139,661,66.7,539.7,66.7z M464,537.7H300c-13.7,0-25-11.3-25-25c0-13.7,11.3-25,25-25
	h164c42.7,0,77.7-34.7,77.7-77.7S507,332.3,464,332.3H295l8.7,8.7c9.7,10,9.7,25.7-0.3,35.7c-5,5-11.3,7.3-17.7,7.3
	s-12.7-2.3-17.7-7.3L215.7,324c-9.7-9.7-9.7-25.7,0-35.3l52.3-52.3c9.7-9.7,25.7-9.7,35.3,0c9.7,9.7,9.7,25.7,0,35.3l-11,11H464
	c70.3,0,127.7,57.3,127.7,127.7S534.3,537.7,464,537.7z"/>
</svg>
