<?xml version="1.0" encoding="utf-8"?>
<!-- Generator: Adobe Illustrator 26.1.0, SVG Export Plug-In . SVG Version: 6.00 Build 0)  -->
<svg version="1.1" id="Layer_1" xmlns="http://www.w3.org/2000/svg" xmlns:xlink="http://www.w3.org/1999/xlink" x="0px" y="0px"
	 viewBox="0 0 800 800" style="enable-background:new 0 0 800 800;" xml:space="preserve">
<style type="text/css">
	.st0{fill:#404040;}
</style>
<path class="st0" d="M733.3,260.3v279.3c0,107-86.7,193.7-193.7,193.7H260.3c-107,0-193.7-86.7-193.7-193.7V260.3
	c0-83,34-143.3,94.3-172.7c22-10.7,47.3,6,47.3,30.3v296c0,39.7,15.3,71.3,43,87.3c28,15.7,63.3,12.3,99.3-9.3l43.3-26
	c2.7-1.3,9.3-1.3,11.3-0.3l44,26.3c24,14.3,44.7,19,61.3,19c17.3,0,30.7-5.3,38.7-10c27-15.7,42.3-47.3,42.3-87V118
	c0-24.3,25.7-41,47.3-30.3C699.3,117,733.3,177.3,733.3,260.3z"/>
<path class="st0" d="M508.3,66.7c18.3,0,33.3,15,33.3,33.3v314c0,21.3-6.3,37.3-17.3,43.7C513,464.3,495,461,475,449l-44-26.3
	c-17-10.3-45-10.3-62,0L325,449c-20,12-38,15-49.3,8.7c-11-6.3-17.3-22.3-17.3-43.7V100c0-18.3,15-33.3,33.3-33.3H508.3z"/>
</svg>
