<?xml version="1.0" encoding="utf-8"?>
<!-- Generator: Adobe Illustrator 26.1.0, SVG Export Plug-In . SVG Version: 6.00 Build 0)  -->
<svg version="1.1" id="Layer_1" xmlns="http://www.w3.org/2000/svg" xmlns:xlink="http://www.w3.org/1999/xlink" x="0px" y="0px"
	 viewBox="0 0 800 800" style="enable-background:new 0 0 800 800;" xml:space="preserve">
<style type="text/css">
	.st0{fill:#404040;}
</style>
<path class="st0" d="M600,200c-20.3,0-39-11.7-48.3-29.7l-24-48.3c-15.3-30.3-55.3-55.3-89.3-55.3H362c-34.3,0-74.3,25-89.7,55.3
	l-24,48.3c-9.3,18-28,29.7-48.3,29.7c-72.3,0-129.7,61-125,133l17.3,275.3c4,68.7,41,125,133,125h349.3c92,0,128.7-56.3,133-125
	L725,333C729.7,261,672.3,200,600,200z M350,241.7h100c13.7,0,25,11.3,25,25s-11.3,25-25,25H350c-13.7,0-25-11.3-25-25
	S336.3,241.7,350,241.7z M400,604c-62,0-112.7-50.3-112.7-112.7S337.7,378.7,400,378.7S512.7,429,512.7,491.3S462,604,400,604z"/>
</svg>
