<?xml version="1.0" encoding="utf-8"?>
<!-- Generator: Adobe Illustrator 26.1.0, SVG Export Plug-In . SVG Version: 6.00 Build 0)  -->
<svg version="1.1" id="Layer_1" xmlns="http://www.w3.org/2000/svg" xmlns:xlink="http://www.w3.org/1999/xlink" x="0px" y="0px"
	 viewBox="0 0 800 800" style="enable-background:new 0 0 800 800;" xml:space="preserve">
<style type="text/css">
	.st0{fill:#404040;}
</style>
<path class="st0" d="M539.7,66.7H260.3C139,66.7,66.7,139,66.7,260.3v279c0,121.7,72.3,194,193.7,194h279
	C660.7,733.3,733,661,733,539.7V260.3C733.3,139,661,66.7,539.7,66.7z M584.3,324L532,376.3c-5,5-11.3,7.3-17.7,7.3
	c-6.3,0-12.7-2.3-17.7-7.3c-9.7-9.7-9.7-25.7,0-35.3l8.7-8.7H336c-42.7,0-77.7,34.7-77.7,77.7s34.7,77.7,77.7,77.7h164
	c13.7,0,25,11.3,25,25s-11.3,25-25,25H336c-70.3,0-127.7-57.3-127.7-127.7S265.7,282.3,336,282.3h171.7l-11-10.7
	c-9.7-9.7-9.7-25.7,0-35.3c9.7-9.7,25.7-9.7,35.3,0l52.3,52.3C594,298.7,594,314.3,584.3,324z"/>
</svg>
