<?xml version="1.0" encoding="utf-8"?>
<!-- Generator: Adobe Illustrator 26.1.0, SVG Export Plug-In . SVG Version: 6.00 Build 0)  -->
<svg version="1.1" id="Layer_1" xmlns="http://www.w3.org/2000/svg" xmlns:xlink="http://www.w3.org/1999/xlink" x="0px" y="0px"
	 viewBox="0 0 800 800" style="enable-background:new 0 0 800 800;" xml:space="preserve">
<style type="text/css">
	.st0{fill:#404040;}
</style>
<path class="st0" d="M86,633.7l-0.7,0.7c-9-19.7-14.7-42-17-66.7C70.7,592,77,614,86,633.7z"/>
<path class="st0" d="M300,346c43.8,0,79.3-35.5,79.3-79.3c0-43.8-35.5-79.3-79.3-79.3c-43.8,0-79.3,35.5-79.3,79.3
	C220.7,310.5,256.2,346,300,346z"/>
<path class="st0" d="M539.7,66.7H260.3C139,66.7,66.7,139,66.7,260.3v279.3c0,36.3,6.3,68,18.7,94.7c28.7,63.3,90,99,175,99h279.3
	c121.3,0,193.7-72.3,193.7-193.7v-76.3v-203C733.3,139,661,66.7,539.7,66.7z M679,416.7c-26-22.3-68-22.3-94,0l-138.7,119
	c-26,22.3-68,22.3-94,0l-11.3-9.3c-23.7-20.7-61.3-22.7-88-4.7l-124.7,83.7c-7.3-18.7-11.7-40.3-11.7-65.7V260.3
	c0-94,49.7-143.7,143.7-143.7h279.3c94,0,143.7,49.7,143.7,143.7v160L679,416.7z"/>
</svg>
