<?xml version="1.0" encoding="utf-8"?>
<!-- Generator: Adobe Illustrator 26.1.0, SVG Export Plug-In . SVG Version: 6.00 Build 0)  -->
<svg version="1.1" id="Layer_1" xmlns="http://www.w3.org/2000/svg" xmlns:xlink="http://www.w3.org/1999/xlink" x="0px" y="0px"
	 viewBox="0 0 800 800" style="enable-background:new 0 0 800 800;" xml:space="preserve">
<style type="text/css">
	.st0{fill:#404040;}
</style>
<path class="st0" d="M258.3,66.7V260H66.7C66.7,139.7,138.3,67.3,258.3,66.7z"/>
<path class="st0" d="M733.3,260H541.7V66.7C661.7,67.3,733.3,139.7,733.3,260z"/>
<path class="st0" d="M733.3,543.4c-1.3,118.3-72.7,189.3-191.7,190v-190H733.3z"/>
<path class="st0" d="M258.3,543.4v190c-119-0.7-190.3-71.7-191.7-190H258.3z"/>
<path class="st0" d="M258.3,310H66.7v183.3h191.7V310z"/>
<path class="st0" d="M733.3,310H541.7v183.3h191.7V310z"/>
<path class="st0" d="M491.7,310H308.3v183.3h183.3V310z"/>
<path class="st0" d="M491.7,66.7H308.3V260h183.3V66.7z"/>
<path class="st0" d="M491.7,543.4H308.3v190h183.3V543.4z"/>
</svg>
