<?xml version="1.0" encoding="utf-8"?>
<!-- Generator: Adobe Illustrator 26.1.0, SVG Export Plug-In . SVG Version: 6.00 Build 0)  -->
<svg version="1.1" id="Layer_1" xmlns="http://www.w3.org/2000/svg" xmlns:xlink="http://www.w3.org/1999/xlink" x="0px" y="0px"
	 viewBox="0 0 800 800" style="enable-background:new 0 0 800 800;" xml:space="preserve">
<style type="text/css">
	.st0{fill:#404040;}
</style>
<path class="st0" d="M497.7,83.3V280c0,14.7-17.3,22-28,12.3l-58.3-53.7c-6.3-6-16.3-6-22.7,0L330.3,292c-10.7,10-28,2.3-28-12V83.3
	c0-9.3,7.3-16.7,16.7-16.7h162C490.3,66.7,497.7,74,497.7,83.3z"/>
<path class="st0" d="M566,68.6c-9.7-1.3-18.3,7-18.3,16.7V286c0,25.3-15,48.3-38.3,58.7c-23.3,10-50.3,5.7-69-11.7l-29-26.7
	c-6.3-6-16-6-22.7,0l-29,26.7c-12,11.3-27.7,17-43.3,17c-8.7,0-17.3-1.7-25.7-5.3c-23.3-10.3-38.3-33.3-38.3-58.7V85.3
	c0-9.7-8.7-18-18.3-16.7c-93.3,11.7-134,74.7-134,164.7v333.3c0,100,50,166.7,166.7,166.7h266.7C650,733.3,700,666.6,700,566.6
	V233.3C700,143.3,659.3,80.3,566,68.6z M583.3,625H300c-13.7,0-25-11.3-25-25c0-13.7,11.3-25,25-25h283.3c13.7,0,25,11.3,25,25
	C608.3,613.6,597,625,583.3,625z M583.3,491.6H441.7c-13.7,0-25-11.3-25-25c0-13.7,11.3-25,25-25h141.7c13.7,0,25,11.3,25,25
	C608.3,480.3,597,491.6,583.3,491.6z"/>
</svg>
