<?xml version="1.0" encoding="utf-8"?>
<!-- Generator: Adobe Illustrator 26.1.0, SVG Export Plug-In . SVG Version: 6.00 Build 0)  -->
<svg version="1.1" id="Layer_1" xmlns="http://www.w3.org/2000/svg" xmlns:xlink="http://www.w3.org/1999/xlink" x="0px" y="0px"
	 viewBox="0 0 800 800" style="enable-background:new 0 0 800 800;" xml:space="preserve">
<style type="text/css">
	.st0{fill:#404040;}
</style>
<path class="st0" d="M702.3,174.3C648.7,169,595,165,541,162v-0.3l-7.3-43.3c-5-30.7-12.3-76.7-90.3-76.7H356
	c-77.7,0-85,44-90.3,76.3l-7,42.7c-31,2-62,4-93,7l-68,6.7c-14,1.3-24,13.7-22.7,27.3c1.3,13.7,13.3,23.7,27.3,22.3l68-6.7
	c174.7-17.3,350.7-10.7,527.3,7c1,0,1.7,0,2.7,0c12.7,0,23.7-9.7,25-22.7C726.3,188,716.3,175.7,702.3,174.3z"/>
<path class="st0" d="M641,271.3c-8-8.3-19-13-30.3-13H189.3c-11.3,0-22.7,4.7-30.3,13c-7.7,8.3-12,19.7-11.3,31.3l20.7,342
	c3.7,50.7,8.3,114,124.7,114h214c116.3,0,121-63,124.7-114L652.3,303C653,291,648.7,279.7,641,271.3z M455.3,591.7h-111
	c-13.7,0-25-11.3-25-25c0-13.7,11.3-25,25-25h111c13.7,0,25,11.3,25,25C480.3,580.3,469,591.7,455.3,591.7z M483.3,458.3H316.7
	c-13.7,0-25-11.3-25-25s11.3-25,25-25h166.7c13.7,0,25,11.3,25,25S497,458.3,483.3,458.3z"/>
</svg>
